<svg xmlns="http://www.w3.org/2000/svg" width="358.758" height="112.965" viewBox="0 0 358.758 112.965">
  <g id="bottom-img" transform="translate(0 -700)">
    <g id="Group_17" data-name="Group 17" transform="translate(277.979 700)">
      <g id="Path_19" data-name="Path 19" transform="translate(14.962)" fill="#fff">
        <path d="M 7.509893894195557 69.05937194824219 L -6.196152687072754 68.5850830078125 C -6.312838077545166 68.41755676269531 -6.416452884674072 68.25274658203125 -6.506611347198486 68.09278106689453 L 7.008680820465088 68.56045532226562 L 7.509893894195557 69.05937194824219 Z" stroke="none"/>
        <path d="M 63.49999618530273 0 C 69.81199645996094 0 62.0234260559082 0.7253875732421875 54.50349426269531 2.236030578613281 C 48.93513870239258 3.354888916015625 43.83177947998047 5.316459655761719 43.83177947998047 5.316459655761719 L 34.82285308837891 9.296501159667969 L 23.67667388916016 17.23103332519531 C 23.67667388916016 17.23103332519531 18.86699676513672 21.36360168457031 15.61117553710938 26.26978302001953 C 13.49985504150391 29.45078277587891 11.09178161621094 33.48328399658203 8.442890167236328 38.13103485107422 C 7.019924163818359 40.62763977050781 6.519351959228516 42.75310516357422 5.336353302001953 45.66053009033203 C 2.334495544433594 53.03174591064453 0 58.36788940429688 0 63.49999618530273 C 0 64.12632751464844 0.07738494873046875 64.90769958496094 0.2174072265625 65.80912780761719 C 0.1068038940429688 66.70656585693359 0.02985382080078125 67.67173767089844 -0.0221710205078125 68.5577392578125 C -0.009063720703125 67.3125 0 65.65489959716797 0 63.49999618530273 C 0 28.42992401123047 28.42992401123047 0 63.49999618530273 0 Z M 1.40924072265625 62.38846969604492 C 1.680404663085938 62.38846969604492 1.998008728027344 62.71807861328125 2.368888854980469 63.49999618530273 C 3.189102172851562 65.23743438720703 2.347923278808594 72.86164855957031 4.104705810546875 80.58926391601562 C 2.437721252441406 75.2845458984375 0.7950057983398438 69.52749633789062 0.2174072265625 65.80912780761719 C 0.4458160400390625 63.95594024658203 0.8174972534179688 62.38846969604492 1.40924072265625 62.38846969604492 Z M -0.0221710205078125 68.5577392578125 C -0.04660797119140625 70.87928009033203 -0.08506011962890625 71.76622009277344 -0.1049346923828125 71.76622009277344 C -0.1303253173828125 71.76622009277344 -0.1254806518554688 70.31704711914062 -0.0221710205078125 68.5577392578125 Z M 4.104705810546875 80.58926391601562 C 4.702262878417969 82.49082946777344 5.303016662597656 84.33451080322266 5.858875274658203 86.00514221191406 C 5.670536041259766 85.59668731689453 5.495632171630859 85.17935180664062 5.336353302001953 84.75360107421875 C 4.82427978515625 83.38490295410156 4.422080993652344 81.98532104492188 4.104705810546875 80.58926391601562 Z M 5.858875274658203 86.00514221191406 C 9.054031372070312 92.93463134765625 16.18428039550781 97.45877075195312 18.88349533081055 102.4087448120117 C 18.97280502319336 102.5727233886719 19.07506942749023 102.7377471923828 19.189208984375 102.9033966064453 L 23.67667388916016 110.164176940918 L 8.442890167236328 93.51449584960938 C 8.442890167236328 93.51449584960938 7.301952362060547 90.34230804443359 5.858875274658203 86.00514221191406 Z M 18.88349533081055 102.4087448120117 C 18.88349533081055 102.4087448120117 19.47904586791992 103.1703872680664 20.3909797668457 104.287971496582 C 19.91423034667969 103.8277206420898 19.50608825683594 103.36328125 19.189208984375 102.9033966064453 L 18.88349533081055 102.4087448120117 Z M 20.3909797668457 104.287971496582 C 23.53425979614258 107.3224716186523 29.6487922668457 110.164176940918 32.09203338623047 110.164176940918 C 36.96590423583984 110.164176940918 32.87889862060547 112.9645233154297 29.79878997802734 112.9645233154297 C 29.08400726318359 112.9645233154297 28.42314147949219 112.8135986328125 27.94142532348633 112.4418869018555 C 25.83903503417969 110.8148651123047 22.37012481689453 106.7134246826172 20.3909797668457 104.287971496582 Z" stroke="none" fill="#a05d0e"/>
      </g>
      <g id="coffee-stain" transform="translate(0 46.641)">
        <g id="Ellipse_6" data-name="Ellipse 6" transform="matrix(0.951, 0.309, -0.309, 0.951, 20.245, 36.115)" fill="#a05d0e" stroke="#a05d0e" stroke-width="1">
          <ellipse cx="4.5" cy="3" rx="4.5" ry="3" stroke="none"/>
          <ellipse cx="4.5" cy="3" rx="4" ry="2.5" fill="none"/>
        </g>
        <g id="Ellipse_7" data-name="Ellipse 7" transform="matrix(0.951, 0.309, -0.309, 0.951, 26.481, 43.311)" fill="#a05d0e" stroke="#a05d0e" stroke-width="1">
          <ellipse cx="4.5" cy="5" rx="4.5" ry="5" stroke="none"/>
          <ellipse cx="4.5" cy="5" rx="4" ry="4.5" fill="none"/>
        </g>
        <g id="Group_1" data-name="Group 1" transform="translate(10.163 0) rotate(25)">
          <g id="Ellipse_4" data-name="Ellipse 4" transform="translate(2 6.048)" fill="#a05d0e" stroke="#a05d0e" stroke-width="1">
            <ellipse cx="9.5" cy="9" rx="9.5" ry="9" stroke="none"/>
            <ellipse cx="9.5" cy="9" rx="9" ry="8.5" fill="none"/>
          </g>
          <g id="Ellipse_5" data-name="Ellipse 5" transform="translate(0 12.048)" fill="#a05d0e" stroke="#a05d0e" stroke-width="1">
            <ellipse cx="4.5" cy="3" rx="4.5" ry="3" stroke="none"/>
            <ellipse cx="4.5" cy="3" rx="4" ry="2.5" fill="none"/>
          </g>
          <g id="Ellipse_8" data-name="Ellipse 8" transform="matrix(0.951, 0.309, -0.309, 0.951, 8.383, 0)" fill="#a05d0e" stroke="#a05d0e" stroke-width="1">
            <ellipse cx="4.5" cy="5" rx="4.5" ry="5" stroke="none"/>
            <ellipse cx="4.5" cy="5" rx="4" ry="4.5" fill="none"/>
          </g>
        </g>
        <g id="Group_2" data-name="Group 2" transform="matrix(-0.883, 0.469, -0.469, -0.883, 44.514, 30.022)">
          <g id="Ellipse_4-2" data-name="Ellipse 4" transform="translate(2 6.048)" fill="#a05d0e" stroke="#a05d0e" stroke-width="1">
            <ellipse cx="9.5" cy="9" rx="9.5" ry="9" stroke="none"/>
            <ellipse cx="9.5" cy="9" rx="9" ry="8.5" fill="none"/>
          </g>
          <g id="Ellipse_5-2" data-name="Ellipse 5" transform="translate(0 12.048)" fill="#a05d0e" stroke="#a05d0e" stroke-width="1">
            <ellipse cx="4.5" cy="3" rx="4.5" ry="3" stroke="none"/>
            <ellipse cx="4.5" cy="3" rx="4" ry="2.5" fill="none"/>
          </g>
          <g id="Ellipse_8-2" data-name="Ellipse 8" transform="matrix(0.951, 0.309, -0.309, 0.951, 8.383, 0)" fill="#a05d0e" stroke="#a05d0e" stroke-width="1">
            <ellipse cx="4.5" cy="5" rx="4.5" ry="5" stroke="none"/>
            <ellipse cx="4.5" cy="5" rx="4" ry="4.5" fill="none"/>
          </g>
        </g>
      </g>
    </g>
    <rect id="Rectangle_2" data-name="Rectangle 2" width="25" height="95" transform="translate(0 707)" fill="none"/>
  </g>
</svg>
